<svg xmlns="http://www.w3.org/2000/svg" xmlns:xlink="http://www.w3.org/1999/xlink" width="23.708" height="22.742" viewBox="0 0 23.708 22.742">
  <defs>
    <clipPath id="clip-path">
      <rect x="1" y="1" width="23.708" height="22.742" fill="none"/>
    </clipPath>
    <clipPath id="clip-path-2">
      <rect id="Rectangle_2178" data-name="Rectangle 2178" width="25.737" height="24.769" fill="none" stroke="#707070" stroke-width="2.3"/>
    </clipPath>
  </defs>
  <g id="Scroll_Group_1" data-name="Scroll Group 1" transform="translate(-1 -1)" clip-path="url(#clip-path)" style="isolation: isolate">
    <g id="Group_2263" data-name="Group 2263" transform="translate(1 1.973)">
      <g id="Group_2262" data-name="Group 2262" transform="translate(-1 -2)" clip-path="url(#clip-path-2)">
        <path id="Path_439" data-name="Path 439" d="M21.43,1.228C22.516,2.4,18.866,7.745,13.277,13.17a53.837,53.837,0,0,1-7.572,6.222c-2.142,1.422-3.938,2.1-4.514,1.481C.1,19.7,3.755,14.355,9.344,8.93S20.344.057,21.43,1.228Z" transform="translate(1.637 1.334)" fill="none" stroke="#000111" stroke-miterlimit="10" stroke-width="2.3"/>
        <ellipse id="Ellipse_31" data-name="Ellipse 31" cx="9.232" cy="9.443" rx="9.232" ry="9.443" transform="translate(3.716 2.942)" fill="#fff" stroke="#000111" stroke-miterlimit="10" stroke-width="2.3"/>
        <path id="Path_442" data-name="Path 442" d="M19.872,6.012A56.147,56.147,0,0,1,13.7,13.1a55.129,55.129,0,0,1-7.122,6.023" transform="translate(1.367 1.201)" fill="none" stroke="#000111" stroke-miterlimit="10" stroke-width="2.3"/>
      </g>
    </g>
  </g>
</svg>
